<svg width="1380" height="824" viewBox="0 0 1380 824" fill="none" xmlns="http://www.w3.org/2000/svg">
<g filter="url(#filter0_d_1_344)">
<rect x="50" y="54" width="1280" height="720" rx="30" fill="#F9F9F9" shape-rendering="crispEdges"/>
<rect x="336" y="113.484" width="973" height="0.619621" fill="black" fill-opacity="0.1"/>
<g filter="url(#filter1_d_1_344)">
<g clip-path="url(#clip0_1_344)">
<rect x="50" y="50" width="240.652" height="724" rx="20" fill="white"/>
</g>
<rect x="50.5" y="50.5" width="239.652" height="723" rx="19.5" stroke="#EFF0F6"/>
</g>
<path d="M78 231.251C78 227.294 78 225.315 78.5523 223.723C79.5558 220.83 81.8296 218.556 84.7227 217.552C86.3148 217 88.2937 217 92.2513 217H260.944C264.902 217 266.881 217 268.473 217.552C271.366 218.556 273.64 220.83 274.643 223.723C275.196 225.315 275.196 227.294 275.196 231.251C275.196 235.209 275.196 237.188 274.643 238.78C273.64 241.673 271.366 243.947 268.473 244.95C266.881 245.503 264.902 245.503 260.944 245.503H92.2513C88.2936 245.503 86.3148 245.503 84.7227 244.95C81.8296 243.947 79.5558 241.673 78.5523 238.78C78 237.188 78 235.209 78 231.251Z" fill="#1B59F8" fill-opacity="0.1"/>
<rect x="78" y="169" width="197.196" height="28.5026" rx="10" fill="#1B59F8" fill-opacity="0.1"/>
<rect x="78" y="119" width="197.196" height="28.5026" rx="10" fill="#1B59F8" fill-opacity="0.1"/>
<path opacity="0.9" d="M300.006 368.036C299.266 368.036 298.61 367.912 298.037 367.663C297.467 367.414 297.019 367.075 296.695 366.644C296.373 366.21 296.214 365.718 296.217 365.167C296.214 364.74 296.307 364.347 296.496 363.989C296.685 363.631 296.94 363.333 297.261 363.094C297.586 362.852 297.947 362.698 298.345 362.632V362.562C297.821 362.446 297.397 362.179 297.072 361.762C296.751 361.341 296.592 360.855 296.595 360.305C296.592 359.781 296.738 359.314 297.033 358.903C297.328 358.492 297.732 358.169 298.246 357.934C298.759 357.695 299.346 357.576 300.006 357.576C300.659 357.576 301.24 357.695 301.751 357.934C302.264 358.169 302.669 358.492 302.964 358.903C303.262 359.314 303.411 359.781 303.411 360.305C303.411 360.855 303.247 361.341 302.919 361.762C302.594 362.179 302.175 362.446 301.661 362.562V362.632C302.059 362.698 302.417 362.852 302.735 363.094C303.056 363.333 303.312 363.631 303.501 363.989C303.693 364.347 303.789 364.74 303.789 365.167C303.789 365.718 303.627 366.21 303.302 366.644C302.977 367.075 302.53 367.414 301.959 367.663C301.393 367.912 300.741 368.036 300.006 368.036ZM300.006 366.614C300.387 366.614 300.718 366.549 301 366.42C301.282 366.288 301.5 366.102 301.656 365.863C301.812 365.625 301.891 365.35 301.895 365.038C301.891 364.713 301.807 364.427 301.641 364.178C301.479 363.926 301.255 363.729 300.97 363.586C300.688 363.444 300.367 363.373 300.006 363.373C299.641 363.373 299.316 363.444 299.031 363.586C298.746 363.729 298.521 363.926 298.355 364.178C298.193 364.427 298.113 364.713 298.116 365.038C298.113 365.35 298.189 365.625 298.345 365.863C298.501 366.099 298.72 366.283 299.001 366.415C299.286 366.548 299.621 366.614 300.006 366.614ZM300.006 361.976C300.317 361.976 300.592 361.913 300.831 361.787C301.073 361.661 301.263 361.485 301.403 361.26C301.542 361.034 301.613 360.774 301.616 360.479C301.613 360.187 301.543 359.932 301.408 359.713C301.272 359.491 301.083 359.321 300.841 359.201C300.599 359.079 300.32 359.017 300.006 359.017C299.684 359.017 299.401 359.079 299.155 359.201C298.914 359.321 298.725 359.491 298.589 359.713C298.456 359.932 298.391 360.187 298.395 360.479C298.391 360.774 298.458 361.034 298.594 361.26C298.733 361.482 298.923 361.657 299.165 361.787C299.411 361.913 299.691 361.976 300.006 361.976ZM300.006 386.036C299.266 386.036 298.61 385.912 298.037 385.663C297.467 385.414 297.019 385.075 296.695 384.644C296.373 384.21 296.214 383.718 296.217 383.167C296.214 382.74 296.307 382.347 296.496 381.989C296.685 381.631 296.94 381.333 297.261 381.094C297.586 380.852 297.947 380.698 298.345 380.632V380.562C297.821 380.446 297.397 380.179 297.072 379.762C296.751 379.341 296.592 378.855 296.595 378.305C296.592 377.781 296.738 377.314 297.033 376.903C297.328 376.492 297.732 376.169 298.246 375.934C298.759 375.695 299.346 375.576 300.006 375.576C300.659 375.576 301.24 375.695 301.751 375.934C302.264 376.169 302.669 376.492 302.964 376.903C303.262 377.314 303.411 377.781 303.411 378.305C303.411 378.855 303.247 379.341 302.919 379.762C302.594 380.179 302.175 380.446 301.661 380.562V380.632C302.059 380.698 302.417 380.852 302.735 381.094C303.056 381.333 303.312 381.631 303.501 381.989C303.693 382.347 303.789 382.74 303.789 383.167C303.789 383.718 303.627 384.21 303.302 384.644C302.977 385.075 302.53 385.414 301.959 385.663C301.393 385.912 300.741 386.036 300.006 386.036ZM300.006 384.614C300.387 384.614 300.718 384.549 301 384.42C301.282 384.288 301.5 384.102 301.656 383.863C301.812 383.625 301.891 383.35 301.895 383.038C301.891 382.713 301.807 382.427 301.641 382.178C301.479 381.926 301.255 381.729 300.97 381.586C300.688 381.444 300.367 381.373 300.006 381.373C299.641 381.373 299.316 381.444 299.031 381.586C298.746 381.729 298.521 381.926 298.355 382.178C298.193 382.427 298.113 382.713 298.116 383.038C298.113 383.35 298.189 383.625 298.345 383.863C298.501 384.099 298.72 384.283 299.001 384.415C299.286 384.548 299.621 384.614 300.006 384.614ZM300.006 379.976C300.317 379.976 300.592 379.913 300.831 379.787C301.073 379.661 301.263 379.485 301.403 379.26C301.542 379.034 301.613 378.774 301.616 378.479C301.613 378.187 301.543 377.932 301.408 377.713C301.272 377.491 301.083 377.321 300.841 377.201C300.599 377.079 300.32 377.017 300.006 377.017C299.684 377.017 299.401 377.079 299.155 377.201C298.914 377.321 298.725 377.491 298.589 377.713C298.456 377.932 298.391 378.187 298.395 378.479C298.391 378.774 298.458 379.034 298.594 379.26C298.733 379.482 298.923 379.657 299.165 379.787C299.411 379.913 299.691 379.976 300.006 379.976ZM300.442 401.988V401.451C300.442 401.056 300.525 400.693 300.691 400.362C300.86 400.03 301.105 399.764 301.427 399.562C301.748 399.359 302.138 399.258 302.595 399.258C303.066 399.258 303.46 399.359 303.778 399.562C304.097 399.76 304.337 400.026 304.499 400.357C304.665 400.688 304.748 401.053 304.748 401.451V401.988C304.748 402.382 304.665 402.745 304.499 403.076C304.334 403.408 304.09 403.675 303.768 403.877C303.45 404.079 303.059 404.18 302.595 404.18C302.131 404.18 301.738 404.079 301.417 403.877C301.095 403.675 300.852 403.408 300.686 403.076C300.524 402.745 300.442 402.382 300.442 401.988ZM301.74 401.451V401.988C301.74 402.249 301.803 402.49 301.929 402.709C302.055 402.927 302.277 403.037 302.595 403.037C302.917 403.037 303.137 402.929 303.256 402.713C303.379 402.495 303.44 402.253 303.44 401.988V401.451C303.44 401.186 303.382 400.944 303.266 400.725C303.15 400.503 302.927 400.392 302.595 400.392C302.284 400.392 302.063 400.503 301.934 400.725C301.805 400.944 301.74 401.186 301.74 401.451ZM295.267 396.161V395.624C295.267 395.226 295.352 394.862 295.521 394.53C295.69 394.199 295.935 393.934 296.256 393.735C296.578 393.533 296.967 393.432 297.425 393.432C297.892 393.432 298.285 393.533 298.603 393.735C298.924 393.934 299.166 394.199 299.329 394.53C299.491 394.862 299.572 395.226 299.572 395.624V396.161C299.572 396.559 299.49 396.923 299.324 397.255C299.161 397.583 298.92 397.846 298.598 398.045C298.277 398.244 297.885 398.343 297.425 398.343C296.957 398.343 296.563 398.244 296.241 398.045C295.923 397.846 295.681 397.581 295.516 397.25C295.35 396.918 295.267 396.555 295.267 396.161ZM296.575 395.624V396.161C296.575 396.426 296.636 396.668 296.759 396.887C296.884 397.102 297.107 397.21 297.425 397.21C297.743 397.21 297.962 397.102 298.081 396.887C298.204 396.668 298.265 396.426 298.265 396.161V395.624C298.265 395.359 298.207 395.117 298.091 394.898C297.975 394.676 297.753 394.565 297.425 394.565C297.11 394.565 296.889 394.676 296.763 394.898C296.638 395.12 296.575 395.362 296.575 395.624ZM295.834 403.897L302.834 393.715H304.077L297.077 403.897H295.834Z" fill="white"/>
<rect x="336.5" y="201.5" width="919" height="341" rx="19.5" fill="white" stroke="#EFF0F6"/>
<rect x="488.5" y="574.5" width="201" height="174" rx="19.5" fill="white" stroke="#EFF0F6"/>
<rect x="883.5" y="574.5" width="201" height="174" rx="19.5" fill="white" stroke="#EFF0F6"/>
<line x1="941" y1="773.6" x2="1180" y2="773.6" stroke="#E4E5E7" stroke-width="0.8"/>
</g>
<defs>
<filter id="filter0_d_1_344" x="0" y="0" width="1380" height="824" filterUnits="userSpaceOnUse" color-interpolation-filters="sRGB">
<feFlood flood-opacity="0" result="BackgroundImageFix"/>
<feColorMatrix in="SourceAlpha" type="matrix" values="0 0 0 0 0 0 0 0 0 0 0 0 0 0 0 0 0 0 127 0" result="hardAlpha"/>
<feOffset/>
<feGaussianBlur stdDeviation="25"/>
<feComposite in2="hardAlpha" operator="out"/>
<feColorMatrix type="matrix" values="0 0 0 0 0 0 0 0 0 0 0 0 0 0 0 0 0 0 0.1 0"/>
<feBlend mode="normal" in2="BackgroundImageFix" result="effect1_dropShadow_1_344"/>
<feBlend mode="normal" in="SourceGraphic" in2="effect1_dropShadow_1_344" result="shape"/>
</filter>
<filter id="filter1_d_1_344" x="30" y="35" width="280.652" height="764" filterUnits="userSpaceOnUse" color-interpolation-filters="sRGB">
<feFlood flood-opacity="0" result="BackgroundImageFix"/>
<feColorMatrix in="SourceAlpha" type="matrix" values="0 0 0 0 0 0 0 0 0 0 0 0 0 0 0 0 0 0 127 0" result="hardAlpha"/>
<feOffset dy="5"/>
<feGaussianBlur stdDeviation="10"/>
<feComposite in2="hardAlpha" operator="out"/>
<feColorMatrix type="matrix" values="0 0 0 0 0 0 0 0 0 0 0 0 0 0 0 0 0 0 0.05 0"/>
<feBlend mode="normal" in2="BackgroundImageFix" result="effect1_dropShadow_1_344"/>
<feBlend mode="normal" in="SourceGraphic" in2="effect1_dropShadow_1_344" result="shape"/>
</filter>
<clipPath id="clip0_1_344">
<rect x="50" y="50" width="240.652" height="724" rx="20" fill="white"/>
</clipPath>
</defs>
</svg>
