<svg width="1380" height="828" viewBox="0 0 1380 828" fill="none" xmlns="http://www.w3.org/2000/svg">
<rect width="1380" height="828" fill="#F5F5F5"/>
<g filter="url(#filter0_d_4_1682)">
<rect x="50" y="50" width="1280" height="720" rx="30" fill="#F9F9F9" shape-rendering="crispEdges"/>
<rect x="336" y="109.484" width="973" height="0.619621" fill="black" fill-opacity="0.1"/>
<g filter="url(#filter1_d_4_1682)">
<rect x="50.5" y="58.5" width="250.348" height="719" rx="19.5" fill="white"/>
<rect x="50.5" y="58.5" width="250.348" height="719" rx="19.5" stroke="#EFF0F6"/>
<rect x="77.587" y="121.821" width="197.196" height="28.5026" rx="10" fill="#1B59F8" fill-opacity="0.1"/>
</g>
<path d="M78 227.251C78 223.294 78 221.315 78.5523 219.723C79.5558 216.83 81.8296 214.556 84.7227 213.552C86.3148 213 88.2937 213 92.2513 213H260.944C264.902 213 266.881 213 268.473 213.552C271.366 214.556 273.64 216.83 274.643 219.723C275.196 221.315 275.196 223.294 275.196 227.251C275.196 231.209 275.196 233.188 274.643 234.78C273.64 237.673 271.366 239.947 268.473 240.95C266.881 241.503 264.902 241.503 260.944 241.503H92.2513C88.2936 241.503 86.3148 241.503 84.7227 240.95C81.8296 239.947 79.5558 237.673 78.5523 234.78C78 233.188 78 231.209 78 227.251Z" fill="#1B59F8" fill-opacity="0.1"/>
<rect x="78" y="165" width="197.196" height="28.5026" rx="10" fill="#1B59F8" fill-opacity="0.1"/>
<path opacity="0.9" d="M300.006 364.036C299.266 364.036 298.61 363.912 298.037 363.663C297.467 363.414 297.019 363.075 296.695 362.644C296.373 362.21 296.214 361.718 296.217 361.167C296.214 360.74 296.307 360.347 296.496 359.989C296.685 359.631 296.94 359.333 297.261 359.094C297.586 358.852 297.947 358.698 298.345 358.632V358.562C297.821 358.446 297.397 358.179 297.072 357.762C296.751 357.341 296.592 356.855 296.595 356.305C296.592 355.781 296.738 355.314 297.033 354.903C297.328 354.492 297.732 354.169 298.246 353.934C298.759 353.695 299.346 353.576 300.006 353.576C300.659 353.576 301.24 353.695 301.751 353.934C302.264 354.169 302.669 354.492 302.964 354.903C303.262 355.314 303.411 355.781 303.411 356.305C303.411 356.855 303.247 357.341 302.919 357.762C302.594 358.179 302.175 358.446 301.661 358.562V358.632C302.059 358.698 302.417 358.852 302.735 359.094C303.056 359.333 303.312 359.631 303.501 359.989C303.693 360.347 303.789 360.74 303.789 361.167C303.789 361.718 303.627 362.21 303.302 362.644C302.977 363.075 302.53 363.414 301.959 363.663C301.393 363.912 300.741 364.036 300.006 364.036ZM300.006 362.614C300.387 362.614 300.718 362.549 301 362.42C301.282 362.288 301.5 362.102 301.656 361.863C301.812 361.625 301.891 361.35 301.895 361.038C301.891 360.713 301.807 360.427 301.641 360.178C301.479 359.926 301.255 359.729 300.97 359.586C300.688 359.444 300.367 359.373 300.006 359.373C299.641 359.373 299.316 359.444 299.031 359.586C298.746 359.729 298.521 359.926 298.355 360.178C298.193 360.427 298.113 360.713 298.116 361.038C298.113 361.35 298.189 361.625 298.345 361.863C298.501 362.099 298.72 362.283 299.001 362.415C299.286 362.548 299.621 362.614 300.006 362.614ZM300.006 357.976C300.317 357.976 300.592 357.913 300.831 357.787C301.073 357.661 301.263 357.485 301.403 357.26C301.542 357.034 301.613 356.774 301.616 356.479C301.613 356.187 301.543 355.932 301.408 355.713C301.272 355.491 301.083 355.321 300.841 355.201C300.599 355.079 300.32 355.017 300.006 355.017C299.684 355.017 299.401 355.079 299.155 355.201C298.914 355.321 298.725 355.491 298.589 355.713C298.456 355.932 298.391 356.187 298.395 356.479C298.391 356.774 298.458 357.034 298.594 357.26C298.733 357.482 298.923 357.657 299.165 357.787C299.411 357.913 299.691 357.976 300.006 357.976ZM300.006 382.036C299.266 382.036 298.61 381.912 298.037 381.663C297.467 381.414 297.019 381.075 296.695 380.644C296.373 380.21 296.214 379.718 296.217 379.167C296.214 378.74 296.307 378.347 296.496 377.989C296.685 377.631 296.94 377.333 297.261 377.094C297.586 376.852 297.947 376.698 298.345 376.632V376.562C297.821 376.446 297.397 376.179 297.072 375.762C296.751 375.341 296.592 374.855 296.595 374.305C296.592 373.781 296.738 373.314 297.033 372.903C297.328 372.492 297.732 372.169 298.246 371.934C298.759 371.695 299.346 371.576 300.006 371.576C300.659 371.576 301.24 371.695 301.751 371.934C302.264 372.169 302.669 372.492 302.964 372.903C303.262 373.314 303.411 373.781 303.411 374.305C303.411 374.855 303.247 375.341 302.919 375.762C302.594 376.179 302.175 376.446 301.661 376.562V376.632C302.059 376.698 302.417 376.852 302.735 377.094C303.056 377.333 303.312 377.631 303.501 377.989C303.693 378.347 303.789 378.74 303.789 379.167C303.789 379.718 303.627 380.21 303.302 380.644C302.977 381.075 302.53 381.414 301.959 381.663C301.393 381.912 300.741 382.036 300.006 382.036ZM300.006 380.614C300.387 380.614 300.718 380.549 301 380.42C301.282 380.288 301.5 380.102 301.656 379.863C301.812 379.625 301.891 379.35 301.895 379.038C301.891 378.713 301.807 378.427 301.641 378.178C301.479 377.926 301.255 377.729 300.97 377.586C300.688 377.444 300.367 377.373 300.006 377.373C299.641 377.373 299.316 377.444 299.031 377.586C298.746 377.729 298.521 377.926 298.355 378.178C298.193 378.427 298.113 378.713 298.116 379.038C298.113 379.35 298.189 379.625 298.345 379.863C298.501 380.099 298.72 380.283 299.001 380.415C299.286 380.548 299.621 380.614 300.006 380.614ZM300.006 375.976C300.317 375.976 300.592 375.913 300.831 375.787C301.073 375.661 301.263 375.485 301.403 375.26C301.542 375.034 301.613 374.774 301.616 374.479C301.613 374.187 301.543 373.932 301.408 373.713C301.272 373.491 301.083 373.321 300.841 373.201C300.599 373.079 300.32 373.017 300.006 373.017C299.684 373.017 299.401 373.079 299.155 373.201C298.914 373.321 298.725 373.491 298.589 373.713C298.456 373.932 298.391 374.187 298.395 374.479C298.391 374.774 298.458 375.034 298.594 375.26C298.733 375.482 298.923 375.657 299.165 375.787C299.411 375.913 299.691 375.976 300.006 375.976ZM300.442 397.988V397.451C300.442 397.056 300.525 396.693 300.691 396.362C300.86 396.03 301.105 395.764 301.427 395.562C301.748 395.359 302.138 395.258 302.595 395.258C303.066 395.258 303.46 395.359 303.778 395.562C304.097 395.76 304.337 396.026 304.499 396.357C304.665 396.688 304.748 397.053 304.748 397.451V397.988C304.748 398.382 304.665 398.745 304.499 399.076C304.334 399.408 304.09 399.675 303.768 399.877C303.45 400.079 303.059 400.18 302.595 400.18C302.131 400.18 301.738 400.079 301.417 399.877C301.095 399.675 300.852 399.408 300.686 399.076C300.524 398.745 300.442 398.382 300.442 397.988ZM301.74 397.451V397.988C301.74 398.249 301.803 398.49 301.929 398.709C302.055 398.927 302.277 399.037 302.595 399.037C302.917 399.037 303.137 398.929 303.256 398.713C303.379 398.495 303.44 398.253 303.44 397.988V397.451C303.44 397.186 303.382 396.944 303.266 396.725C303.15 396.503 302.927 396.392 302.595 396.392C302.284 396.392 302.063 396.503 301.934 396.725C301.805 396.944 301.74 397.186 301.74 397.451ZM295.267 392.161V391.624C295.267 391.226 295.352 390.862 295.521 390.53C295.69 390.199 295.935 389.934 296.256 389.735C296.578 389.533 296.967 389.432 297.425 389.432C297.892 389.432 298.285 389.533 298.603 389.735C298.924 389.934 299.166 390.199 299.329 390.53C299.491 390.862 299.572 391.226 299.572 391.624V392.161C299.572 392.559 299.49 392.923 299.324 393.255C299.161 393.583 298.92 393.846 298.598 394.045C298.277 394.244 297.885 394.343 297.425 394.343C296.957 394.343 296.563 394.244 296.241 394.045C295.923 393.846 295.681 393.581 295.516 393.25C295.35 392.918 295.267 392.555 295.267 392.161ZM296.575 391.624V392.161C296.575 392.426 296.636 392.668 296.759 392.887C296.884 393.102 297.107 393.21 297.425 393.21C297.743 393.21 297.962 393.102 298.081 392.887C298.204 392.668 298.265 392.426 298.265 392.161V391.624C298.265 391.359 298.207 391.117 298.091 390.898C297.975 390.676 297.753 390.565 297.425 390.565C297.11 390.565 296.889 390.676 296.763 390.898C296.638 391.12 296.575 391.362 296.575 391.624ZM295.834 399.897L302.834 389.715H304.077L297.077 399.897H295.834Z" fill="white"/>
<rect x="336.5" y="213.5" width="919" height="482" rx="19.5" fill="white" stroke="#EFF0F6"/>
<line x1="941" y1="769.6" x2="1180" y2="769.6" stroke="#E4E5E7" stroke-width="0.8"/>
</g>
<defs>
<filter id="filter0_d_4_1682" x="0" y="0" width="1380" height="828" filterUnits="userSpaceOnUse" color-interpolation-filters="sRGB">
<feFlood flood-opacity="0" result="BackgroundImageFix"/>
<feColorMatrix in="SourceAlpha" type="matrix" values="0 0 0 0 0 0 0 0 0 0 0 0 0 0 0 0 0 0 127 0" result="hardAlpha"/>
<feOffset/>
<feGaussianBlur stdDeviation="25"/>
<feComposite in2="hardAlpha" operator="out"/>
<feColorMatrix type="matrix" values="0 0 0 0 0 0 0 0 0 0 0 0 0 0 0 0 0 0 0.1 0"/>
<feBlend mode="normal" in2="BackgroundImageFix" result="effect1_dropShadow_4_1682"/>
<feBlend mode="normal" in="SourceGraphic" in2="effect1_dropShadow_4_1682" result="shape"/>
</filter>
<filter id="filter1_d_4_1682" x="30" y="43" width="291.348" height="760" filterUnits="userSpaceOnUse" color-interpolation-filters="sRGB">
<feFlood flood-opacity="0" result="BackgroundImageFix"/>
<feColorMatrix in="SourceAlpha" type="matrix" values="0 0 0 0 0 0 0 0 0 0 0 0 0 0 0 0 0 0 127 0" result="hardAlpha"/>
<feOffset dy="5"/>
<feGaussianBlur stdDeviation="10"/>
<feComposite in2="hardAlpha" operator="out"/>
<feColorMatrix type="matrix" values="0 0 0 0 0 0 0 0 0 0 0 0 0 0 0 0 0 0 0.05 0"/>
<feBlend mode="normal" in2="BackgroundImageFix" result="effect1_dropShadow_4_1682"/>
<feBlend mode="normal" in="SourceGraphic" in2="effect1_dropShadow_4_1682" result="shape"/>
</filter>
</defs>
</svg>
